<svg width="74" height="29" viewBox="0 0 74 29" fill="none" xmlns="http://www.w3.org/2000/svg">
<path d="M48.3793 0.752684C48.1716 0.752794 47.9661 0.801038 47.7743 0.894657C47.5825 0.988276 47.4083 1.12543 47.2616 1.29829C46.9717 1.6393 46.7977 2.12097 46.7977 2.61542V25.0987C46.7977 25.5932 46.9644 26.0663 47.2616 26.4159C47.4083 26.5887 47.5826 26.7258 47.7745 26.8194C47.9663 26.9129 48.172 26.9611 48.3797 26.9611C48.5873 26.9611 48.793 26.9129 48.9848 26.8194C49.1767 26.7258 49.351 26.5887 49.4977 26.4159C49.7876 26.0749 49.9616 25.5932 49.9616 25.0987V2.61457C49.9616 2.12011 49.7949 1.64697 49.4977 1.29744C49.3509 1.12448 49.1766 0.987263 48.9847 0.893641C48.7928 0.800019 48.5871 0.751829 48.3793 0.751831V0.752684ZM24.2843 8.67764C24.2843 7.64951 23.5761 6.81575 22.7042 6.81575C21.8322 6.81575 21.124 7.64951 21.124 8.67764V25.097C21.124 26.1252 21.8322 26.9589 22.7042 26.9589C23.5761 26.9589 24.2843 26.1252 24.2843 25.097V8.67764Z" fill="#5A646E"/>
<path d="M24.731 2.618C24.7207 3.24263 24.5027 3.83763 24.1236 4.27528C23.7447 4.71243 23.2351 4.95733 22.7044 4.95733C22.1736 4.95733 21.664 4.71243 21.2851 4.27528C20.9061 3.83763 20.688 3.24263 20.6777 2.618C20.6775 1.98502 20.891 1.37785 21.2714 0.930021C21.4593 0.708319 21.6826 0.532416 21.9284 0.412394C22.1743 0.292372 22.4378 0.230591 22.704 0.230591C22.9702 0.230591 23.2338 0.292372 23.4796 0.412394C23.7254 0.532416 23.9487 0.708319 24.1366 0.930021C24.517 1.37785 24.7305 1.98502 24.7303 2.618H24.731Z" fill="#00AEEF"/>
<path d="M43.9406 12.7577C42.4214 8.7117 38.8269 5.85238 34.7258 6.34683C33.3431 6.51873 32.0131 7.06498 30.84 7.94274C29.6664 8.82109 28.6815 10.0069 27.9624 11.4073C27.2429 12.8086 26.8086 14.3864 26.6932 16.0177C26.5772 17.6494 26.7845 19.2914 27.297 20.8123C27.8093 22.3336 28.6138 23.695 29.6476 24.7901C30.6811 25.8843 31.9158 26.6826 33.2551 27.1226C34.5943 27.5623 36.0018 27.631 37.3674 27.3234C38.7329 27.0157 40.0192 26.34 41.1254 25.3493C41.3115 25.1815 41.4633 24.9668 41.5697 24.721C41.6762 24.4755 41.735 24.2044 41.7408 23.9282C41.7527 23.4384 41.5988 22.963 41.3131 22.6064C41.0273 22.2498 40.6329 22.0412 40.2164 22.0262C39.8586 22.0127 39.5076 22.1439 39.222 22.3979C38.1271 23.3923 36.7662 23.8936 35.3847 23.8114C34.2626 23.7441 33.1807 23.2987 32.2679 22.5284C31.351 21.7591 30.6397 20.6983 30.2173 19.4704C30.1597 19.3049 30.1562 19.1201 30.2075 18.9517C30.2587 18.7833 30.3611 18.6432 30.4949 18.5582C30.5836 18.5022 30.6827 18.4729 30.7834 18.473H41.7611C42.2899 18.4755 42.8075 18.293 43.2479 17.9485C43.6884 17.6041 44.0317 17.1133 44.2342 16.5386C44.3691 16.1571 44.4388 15.7481 44.4393 15.3349C44.4171 14.4479 44.2513 13.5741 43.9508 12.7603L43.9406 12.7577ZM35.6594 9.98536C36.8347 9.9857 37.9828 10.4009 38.9552 11.1772C39.9283 11.9544 40.6807 13.057 41.1152 14.3425C41.1519 14.4522 41.1656 14.5706 41.1551 14.6878C41.1442 14.8049 41.1092 14.9171 41.0531 15.0147C40.997 15.1123 40.9216 15.1924 40.8333 15.2479C40.745 15.3036 40.6464 15.3329 40.5462 15.3332H30.7718C30.6716 15.3333 30.5729 15.304 30.4848 15.2479C30.3964 15.1917 30.321 15.1115 30.2644 15.0152C30.2079 14.9188 30.1731 14.8055 30.163 14.6878C30.1525 14.5706 30.1661 14.4522 30.2028 14.3425C30.6374 13.057 31.3898 11.9544 32.3628 11.1772C33.3368 10.4048 34.4839 9.98995 35.6587 9.98536H35.6594ZM61.3352 23.8182C60.2085 23.8185 59.1055 23.437 58.1583 22.7193C57.2101 21.9988 56.4559 20.9757 55.9838 19.7696C55.5166 18.5621 55.3543 17.2221 55.5163 15.9091C55.6782 14.5961 56.1575 13.3656 56.8971 12.3639L54.5051 9.96234C53.7307 11.0202 53.1419 12.2478 52.7728 13.5744C52.4026 14.9011 52.2585 16.3007 52.3487 17.6929C52.4386 19.0851 52.7619 20.4431 53.291 21.6886C53.8275 22.9336 54.5677 24.0417 55.4691 24.9495C56.3701 25.857 57.4145 26.5465 58.5424 26.9785C59.67 27.4103 60.8591 27.5755 62.0412 27.4644C63.2236 27.3534 64.3755 26.9681 65.4306 26.3306C66.4861 25.6937 67.4244 24.8179 68.1915 23.7534L65.7995 21.3528C65.2491 22.1253 64.5612 22.7463 63.7845 23.172C63.0083 23.598 62.162 23.8183 61.3055 23.8174L61.3352 23.8182Z" fill="#5A646E"/>
<path d="M61.3352 6.2837C60.0418 6.28183 58.7635 6.609 57.5878 7.24278C56.4111 7.87671 55.3648 8.80203 54.5203 9.95547L56.905 12.357C57.9207 10.9802 59.3582 10.1318 60.9038 9.99684C62.4494 9.86189 63.9776 10.4514 65.155 11.6366C66.3328 12.8239 67.0647 14.5098 67.1918 16.328C67.3182 18.1465 66.829 19.9502 65.8306 21.3467L68.2153 23.7474C69.3249 22.2021 70.0366 20.3163 70.2666 18.3118C70.4962 16.3067 70.2342 14.2662 69.5113 12.4303C68.7887 10.5953 67.6351 9.04144 66.1865 7.95207C64.7364 6.86673 63.054 6.28815 61.3352 6.2837V6.2837Z" fill="#00AEEF"/>
<path d="M18.2102 22.4815C17.9378 22.2037 17.5927 22.0438 17.2324 22.0285C16.872 22.0131 16.5181 22.1432 16.2292 22.3971C15.36 23.1795 14.322 23.6602 13.2326 23.785C12.1431 23.9097 11.0457 23.6735 10.0645 23.103C9.08318 22.5315 8.25665 21.6497 7.67764 20.5565C7.09872 19.4622 6.79105 18.1996 6.78925 16.9107C6.78746 15.6219 7.09162 14.3581 7.66749 13.2615C8.2429 12.1658 9.06707 11.2809 10.0471 10.7066C11.0267 10.1316 12.1236 9.89087 13.2135 10.0116C14.3035 10.1322 15.3429 10.6096 16.214 11.3894C16.4995 11.6482 16.8519 11.7839 17.2123 11.7736C17.5726 11.7634 17.919 11.6079 18.1936 11.3332C18.3711 11.1541 18.5125 10.9325 18.6067 10.6827C18.7009 10.4329 18.7488 10.1601 18.7444 9.8856C18.7401 9.61109 18.6821 9.34169 18.5777 9.09702C18.4733 8.85235 18.3226 8.63667 18.1392 8.46957C16.8038 7.26731 15.2089 6.52899 13.535 6.33829C11.8606 6.14693 10.174 6.5117 8.667 7.39117C7.15997 8.27064 5.89283 9.62955 5.00952 11.3136C4.12488 12.9977 3.65771 14.939 3.66066 16.9186C3.6636 18.8983 4.13654 20.8376 5.02619 22.5181C5.91559 24.1969 7.18686 25.5492 8.69604 26.4221C10.2052 27.2949 11.892 27.6533 13.5655 27.4567C15.2386 27.2594 16.8313 26.5149 18.1631 25.3076C18.3441 25.1406 18.4913 24.9284 18.594 24.6863C18.6966 24.4442 18.7522 24.1782 18.7567 23.9077C18.7614 23.6373 18.7148 23.369 18.6204 23.1223C18.526 22.8756 18.3861 22.6567 18.2109 22.4815H18.2102Z" fill="#5A646E"/>
</svg>
