<svg width="108" height="69" viewBox="0 0 108 69" fill="none" xmlns="http://www.w3.org/2000/svg">
<g clip-path="url(#clip0_4211_450)">
<path d="M0 6.10352e-05H108V69.0001H0V6.10352e-05Z" fill="#BA05BE" fill-opacity="0.01"/>
<path d="M79.7231 39.9606C79.7231 41.0535 77.6821 42.397 76.022 42.397H74.5106C74.5122 35.7084 74.5122 28.2099 74.5106 26.879C74.51 26.8395 74.5215 26.8004 74.5445 26.7639C74.5676 26.7273 74.6017 26.694 74.6449 26.6659C74.6881 26.6378 74.7396 26.6154 74.7964 26.6C74.8532 26.5846 74.9142 26.5765 74.9759 26.5762H79.2557C79.5127 26.5762 79.7233 26.714 79.7233 26.8813V39.9606H79.7231ZM72.7489 44.744C72.7489 45.4358 72.2191 46.5947 68.6699 46.5947C61.7918 46.5947 57.5695 43.152 57.5695 40.6828C57.5695 40.6828 57.5619 32.699 57.5619 26.8815C57.5612 26.842 57.5727 26.8028 57.5958 26.7662C57.6189 26.7296 57.6531 26.6963 57.6964 26.6681C57.7397 26.64 57.7913 26.6176 57.8483 26.6023C57.9052 26.5869 57.9663 26.5789 58.0281 26.5787H62.313C62.5703 26.5787 62.7816 26.7156 62.7816 26.884V39.712C62.7816 41.8315 65.4072 43.5507 68.6439 43.5507H72.7512L72.7489 44.744ZM79.5805 25.4257H74.6504C73.6021 25.4257 72.7484 25.9851 72.7484 26.6713V42.3983H68.6409C66.3746 42.3983 64.5379 41.1953 64.5379 39.7117V26.6713C64.5379 25.9835 63.6854 25.4252 62.635 25.4252H57.7028C56.6525 25.4252 55.8002 25.9835 55.7985 26.6713C55.796 32.3574 55.8062 40.6831 55.8062 40.6831C55.8069 45.0594 63.2979 47.7465 68.6685 47.7465C72.2708 47.7465 74.5083 46.5936 74.5083 44.7361V43.5504H76.0213C78.6753 43.5504 81.4825 41.7056 81.4825 39.9606V26.6713C81.485 25.9835 80.6327 25.4252 79.5808 25.4252V25.4257H79.5805ZM50.4426 42.1187C50.4432 42.1581 50.4316 42.1972 50.4085 42.2337C50.3854 42.2703 50.3512 42.3036 50.3079 42.3316C50.2646 42.3597 50.213 42.3821 50.1562 42.3974C50.0993 42.4127 50.0383 42.4206 49.9766 42.4208H45.6917C45.4309 42.4208 45.222 42.2827 45.2231 42.1163V29.2882C45.2231 27.1688 42.5968 25.4496 39.3608 25.4496H35.2532V24.256C35.2532 23.5657 35.7831 22.4053 39.3323 22.4053C46.2106 22.4053 50.434 25.8479 50.434 28.3172C50.434 28.3172 50.4416 36.3397 50.4416 42.1185H50.4426V42.1187ZM28.7443 42.4235C28.4836 42.4186 28.2751 42.2844 28.2781 42.1178V29.0409C28.2781 27.9478 30.3194 26.6026 31.9787 26.6026H33.4915C33.4892 36.1808 33.4892 41.082 33.4915 42.1172C33.4927 42.1972 33.4442 42.2742 33.3567 42.3314C33.2692 42.3886 33.1498 42.4214 33.0246 42.4225H28.745L28.7443 42.4235ZM52.1927 28.3173C52.1936 23.9407 44.7024 21.2535 39.3325 21.2535C35.7292 21.2535 33.4915 22.4063 33.4915 24.2639V25.4496H31.9794C29.3245 25.4496 26.5173 27.2944 26.5173 29.0396V42.3287C26.5173 43.0165 27.3696 43.5749 28.4195 43.5749H33.3487C33.3794 43.5749 33.4056 43.5695 33.4363 43.5695C34.4437 43.5385 35.2507 42.9965 35.2507 42.3287V26.6017H39.359C41.6243 26.6017 43.4619 27.8047 43.4619 29.2883V42.3289C43.4619 43.0167 44.3144 43.575 45.3641 43.575H50.2972C51.3476 43.575 52.1994 43.0182 52.1994 42.3289C52.2031 36.5367 52.1934 28.317 52.1934 28.317L52.1927 28.3173Z" fill="white"/>
</g>
<defs>
<clipPath id="clip0_4211_450">
<rect width="108" height="69" fill="white"/>
</clipPath>
</defs>
</svg>
